<?xml version="1.0" encoding="UTF-8"?>
<!-- Generated by jsxcad -->
<!DOCTYPE svg PUBLIC "-//W3C//DTD SVG 1.1 Tiny//EN" "http://www.w3.org/Graphics/SVG/1.1/DTD/svg11-tiny.dtd">
<svg viewBox="-250 -250 500 500" width="500" height="500" xmlns="http://www.w3.org/2000/svg"><path d="M-19.543615177027483,-106.46254024814218L-28.550022635122076,-102.93472310353542L-37.44363019382599,-99.06200241130784zM-1.286808115999503,-112.44144221169L-10.447919380971227,-109.63485611675887L-19.543615177027483,-106.46254024814218zM17.134125778600847,-116.91856503590924L-1.286808115999503,-112.44144221169L-19.543615177027483,-106.46254024814218zM17.134125778600847,-116.91856503590924L7.915446658135561,-114.87248430301962L-1.286808115999503,-112.44144221169zM35.5193977736125,-119.82036382444909L26.34402153696713,-118.57069958973052L17.134125778600847,-116.91856503590924zM-37.44363019382599,-99.06200241130784L-42.09146014987866,-96.82947587979521L-44.2686346428284,-47.98636025780176zM-19.543615177027483,-106.46254024814218L-37.44363019382599,-99.06200241130784L-44.2686346428284,-47.98636025780176zM17.134125778600847,-116.91856503590924L-19.543615177027483,-106.46254024814218L-44.2686346428284,-47.98636025780176zM42.47880548939925,-71.6014828582893L35.5193977736125,-119.82036382444909L17.134125778600847,-116.91856503590924z" style="fill:rgb(83,212,212)"/><path d="M43.826830880998116,-112.10827201332155L40.346647496692796,-120.26480076385484L42.47880548939925,-71.6014828582893z" style="fill:rgb(247,158,158)"/><path d="M42.47880548939925,-71.6014828582893L40.346647496692796,-120.26480076385484L35.5193977736125,-119.82036382444909zM17.134125778600847,-116.91856503590924L-44.2686346428284,-47.98636025780176L-44.82372269871046,-44.251923310854835zM44.43260244993822,-64.87090120646062L17.134125778600847,-116.91856503590924L-44.82372269871046,-44.251923310854835z" style="fill:rgb(83,212,212)"/><path d="M42.47880548939925,-71.6014828582893L46.12578939320511,-63.37666658518917L43.826830880998116,-112.10827201332155z" style="fill:rgb(247,158,158)"/><path d="M43.048111395708105,-68.09445652279342L42.47880548939925,-71.6014828582893L17.134125778600847,-116.91856503590924zM-77.64977187847644,-15.719069017500548L-147.68180252588482,2.9366205292651357L-149.57601116905346,6.998403985320737zM44.43260244993822,-64.87090120646062L43.048111395708105,-68.09445652279342L17.134125778600847,-116.91856503590924zM-149.57601116905346,6.998403985320737L-152.6290829369406,14.689716219445762L-155.1559549646408,22.41536047725883zM-77.64977187847644,-15.719069017500548L-149.57601116905346,6.998403985320737L-155.1559549646408,22.41536047725883zM-72.60612878383864,-17.355178966417476L-77.64977187847644,-15.719069017500548L-155.1559549646408,22.41536047725883zM-67.63777347610089,-19.54954490384818L-72.60612878383864,-17.355178966417476L-155.1559549646408,22.41536047725883zM49.52913092285248,-59.597582375323526L-44.82372269871046,-44.251923310854835L-46.15811331890298,-40.37034863629507zM49.52913092285248,-59.597582375323526L-46.15811331890298,-40.37034863629507L-48.24513037735972,-36.44001113839517z" style="fill:rgb(83,212,212)"/><path d="M43.048111395708105,-68.09445652279342L46.704752732100324,-59.86435919810677L46.12578939320511,-63.37666658518917z" style="fill:rgb(246,165,151)"/><path d="M49.52913092285248,-59.597582375323526L-48.24513037735972,-36.44001113839517L-51.03721564438303,-32.56240510558915z" style="fill:rgb(83,212,212)"/><path d="M46.12578939320511,-63.37666658518917L42.47880548939925,-71.6014828582893L43.048111395708105,-68.09445652279342z" style="fill:rgb(246,165,151)"/><path d="M-155.1559549646408,22.41536047725883L-157.13780998360204,30.15031556023055L-158.55667158482044,37.868443758166975zM46.607853529521975,-62.013456502388806L44.43260244993822,-64.87090120646062L-44.82372269871046,-44.251923310854835z" style="fill:rgb(83,212,212)"/><path d="M44.43260244993822,-64.87090120646062L48.09328530078176,-56.63249757087059L46.704752732100324,-59.86435919810677zM46.704752732100324,-59.86435919810677L43.048111395708105,-68.09445652279342L44.43260244993822,-64.87090120646062z" style="fill:rgb(244,178,136)"/><path d="M49.52913092285248,-59.597582375323526L46.607853529521975,-62.013456502388806L-44.82372269871046,-44.251923310854835zM-155.1559549646408,22.41536047725883L-158.55667158482044,37.868443758166975L-159.6388965778692,53.144133502077196zM-14.090448713923788,-26.850563714799108L49.52913092285248,-59.597582375323526L-51.03721564438303,-32.56240510558915zM-18.85512680338713,-24.113879998273102L-14.090448713923788,-26.850563714799108L-51.03721564438303,-32.56240510558915zM-23.323055417017436,-21.002827112880844L-18.85512680338713,-24.113879998273102L-51.03721564438303,-32.56240510558915zM-27.4205737885278,-17.56729683040149L-23.323055417017436,-21.002827112880844L-51.03721564438303,-32.56240510558915zM-31.079054628051896,-13.862332469649958L-27.4205737885278,-17.56729683040149L-51.03721564438303,-32.56240510558915z" style="fill:rgb(83,212,212)"/><path d="M-14.090448713923788,-26.850563714799108L-9.961849534886147,-18.832835540977303L-5.014604884632275,-21.131581399378405z" style="fill:rgb(159,48,222)"/><path d="M-18.85512680338713,-24.113879998273102L-14.689603658248078,-16.114447794951342L-9.961849534886147,-18.832835540977303z" style="fill:rgb(174,56,222)"/><path d="M-34.235810932166125,-9.947565673257596L-31.079054628051896,-13.862332469649958L-51.03721564438303,-32.56240510558915z" style="fill:rgb(83,212,212)"/><path d="M-9.106799573136167,-29.16866099035378L-5.014604884632275,-21.131581399378405L0.07167247892371849,-22.97292397684663z" style="fill:rgb(143,42,220)"/><path d="M-23.323055417017436,-21.002827112880844L-19.12063457319328,-13.020372186145558L-14.689603658248078,-16.114447794951342z" style="fill:rgb(188,65,220)"/><path d="M-3.985171275765219,-31.030120781403287L0.07167247892371849,-22.97292397684663L5.214220238937283,-24.32574473118047z" style="fill:rgb(127,37,217)"/><path d="M-27.4205737885278,-17.56729683040149L-23.181843227494788,-9.600258941814877L-19.12063457319328,-13.020372186145558z" style="fill:rgb(201,75,217)"/><path d="M-51.03721564438303,-32.56240510558915L-36.835032593673716,-5.886573844190512L-34.235810932166125,-9.947565673257596z" style="fill:rgb(83,212,212)"/><path d="M-9.961849534886147,-18.832835540977303L-14.090448713923788,-26.850563714799108L-18.85512680338713,-24.113879998273102z" style="fill:rgb(174,56,222)"/><path d="M-5.014604884632275,-21.131581399378405L-9.106799573136167,-29.16866099035378L-14.090448713923788,-26.850563714799108z" style="fill:rgb(159,48,222)"/><path d="M-158.55667158482044,37.868443758166975L-159.39559757952736,45.54249505033618L-159.6388965778692,53.144133502077196z" style="fill:rgb(83,212,212)"/><path d="M1.1911554813564351,-32.403511103783494L5.214220238937283,-24.32574473118047L10.328919010586407,-25.166000846642913z" style="fill:rgb(111,34,212)"/><path d="M-14.689603658248078,-16.114447794951342L-18.85512680338713,-24.113879998273102L-23.323055417017436,-21.002827112880844z" style="fill:rgb(188,65,220)"/><path d="M0.07167247892371849,-22.97292397684663L-3.985171275765219,-31.030120781403287L-9.106799573136167,-29.16866099035378z" style="fill:rgb(143,42,220)"/><path d="M-31.079054628051896,-13.862332469649958L-26.805158565119807,-5.9089434978842545L-23.181843227494788,-9.600258941814877z" style="fill:rgb(213,86,212)"/><path d="M-51.03721564438303,-32.56240510558915L-38.828719597434464,-1.7461783436233251L-36.835032593673716,-5.886573844190512z" style="fill:rgb(83,212,212)"/><path d="M-19.12063457319328,-13.020372186145558L-23.323055417017436,-21.002827112880844L-27.4205737885278,-17.56729683040149z" style="fill:rgb(201,75,217)"/><path d="M5.214220238937283,-24.32574473118047L1.1911554813564351,-32.403511103783494L-3.985171275765219,-31.030120781403287z" style="fill:rgb(127,37,217)"/><path d="M-51.03721564438303,-32.56240510558915L-54.466674960778306,-28.839197001100693L-77.54158408889492,52.23576750917684z" style="fill:rgb(83,212,212)"/><path d="M6.3375593916335085,-33.26445454971024L10.328919010586407,-25.166000846642913L15.331283292437494,-25.477149520315397z" style="fill:rgb(95,32,206)"/><path d="M-14.090448713923788,-26.850563714799108L-9.106799573136167,-29.16866099035378L49.52913092285248,-59.597582375323526zM-9.106799573136167,-29.16866099035378L-3.985171275765219,-31.030120781403287L49.52913092285248,-59.597582375323526z" style="fill:rgb(83,212,212)"/><path d="M-23.181843227494788,-9.600258941814877L-27.4205737885278,-17.56729683040149L-31.079054628051896,-13.862332469649958z" style="fill:rgb(213,86,212)"/><path d="M-34.235810932166125,-9.947565673257596L-29.92846920288291,-2.0058688913247544L-26.805158565119807,-5.9089434978842545z" style="fill:rgb(223,98,205)"/><path d="M-54.466674960778306,-28.839197001100693L-58.44721659485036,-25.36910014396216L-77.54158408889492,52.23576750917684zM-67.63777347610089,-19.54954490384818L-155.1559549646408,22.41536047725883L-77.54158408889492,52.23576750917684z" style="fill:rgb(83,212,212)"/><path d="M10.328919010586407,-25.166000846642913L6.3375593916335085,-33.26445454971024L1.1911554813564351,-32.403511103783494z" style="fill:rgb(111,34,212)"/><path d="M-3.985171275765219,-31.030120781403287L1.1911554813564351,-32.403511103783494L49.52913092285248,-59.597582375323526zM-51.03721564438303,-32.56240510558915L-40.177614989595135,2.4043623592341823L-38.828719597434464,-1.7461783436233251zM-58.44721659485036,-25.36910014396216L-62.876232272821284,-22.244722028191557L-77.54158408889492,52.23576750917684zM-62.876232272821284,-22.244722028191557L-67.63777347610089,-19.54954490384818L-77.54158408889492,52.23576750917684zM1.1911554813564351,-32.403511103783494L6.3375593916335085,-33.26445454971024L49.52913092285248,-59.597582375323526z" style="fill:rgb(83,212,212)"/><path d="M11.369073240573623,-33.596053899052L15.331283292437494,-25.477149520315397L20.137507215200596,-25.250510743118806z" style="fill:rgb(80,32,198)"/><path d="M-26.805158565119807,-5.9089434978842545L-31.079054628051896,-13.862332469649958L-34.235810932166125,-9.947565673257596z" style="fill:rgb(223,98,205)"/><path d="M15.331283292437494,-25.477149520315397L11.369073240573623,-33.596053899052L6.3375593916335085,-33.26445454971024z" style="fill:rgb(95,32,206)"/><path d="M-36.835032593673716,-5.886573844190512L-32.49652156250294,2.0455449082942216L-29.92846920288291,-2.0058688913247544z" style="fill:rgb(232,111,197)"/><path d="M6.3375593916335085,-33.26445454971024L11.369073240573623,-33.596053899052L49.52913092285248,-59.597582375323526zM-51.03721564438303,-32.56240510558915L-40.85213704938189,6.494255431078597L-40.177614989595135,2.4043623592341823z" style="fill:rgb(83,212,212)"/><path d="M-29.92846920288291,-2.0058688913247544L-34.235810932166125,-9.947565673257596L-36.835032593673716,-5.886573844190512z" style="fill:rgb(232,111,197)"/><path d="M16.201432120308887,-33.38927131040341L20.137507215200596,-25.250510743118806L24.665581094503636,-24.485639773233753z" style="fill:rgb(66,34,189)"/><path d="M11.369073240573623,-33.596053899052L16.201432120308887,-33.38927131040341L49.52913092285248,-59.597582375323526z" style="fill:rgb(83,212,212)"/><path d="M20.137507215200596,-25.250510743118806L16.201432120308887,-33.38927131040341L11.369073240573623,-33.596053899052z" style="fill:rgb(80,32,198)"/><path d="M-51.03721564438303,-32.56240510558915L-40.83324957304463,10.452189596439242L-40.85213704938189,6.494255431078597z" style="fill:rgb(83,212,212)"/><path d="M-38.828719597434464,-1.7461783436233251L-34.46186813703124,6.178612521616559L-32.49652156250294,2.0455449082942216z" style="fill:rgb(239,123,188)"/><path d="M16.201432120308887,-33.38927131040341L20.752192577496846,-32.64328370422516L49.52913092285248,-59.597582375323526z" style="fill:rgb(83,212,212)"/><path d="M-32.49652156250294,2.0455449082942216L-36.835032593673716,-5.886573844190512L-38.828719597434464,-1.7461783436233251z" style="fill:rgb(239,123,188)"/><path d="M20.752192577496846,-32.64328370422516L24.665581094503636,-24.485639773233753L28.836473643702707,-23.190603802586686z" style="fill:rgb(53,37,179)"/><path d="M24.665581094503636,-24.485639773233753L20.752192577496846,-32.64328370422516L16.201432120308887,-33.38927131040341z" style="fill:rgb(66,34,189)"/><path d="M-155.1559549646408,22.41536047725883L-159.6388965778692,53.144133502077196L-82.87110155025701,53.23076738164249zM-51.03721564438303,-32.56240510558915L-40.1132546111652,14.207462334646095L-40.83324957304463,10.452189596439242zM20.752192577496846,-32.64328370422516L24.941926995712972,-31.365789980802326L49.52913092285248,-59.597582375323526z" style="fill:rgb(83,212,212)"/><path d="M-40.177614989595135,2.4043623592341823L-35.78578956287262,10.32418431790372L-34.46186813703124,6.178612521616559zM-34.46186813703124,6.178612521616559L-38.828719597434464,-1.7461783436233251L-40.177614989595135,2.4043623592341823z" style="fill:rgb(244,136,178)"/><path d="M24.941926995712972,-31.365789980802326L28.836473643702707,-23.190603802586686L32.57539952739066,-21.38220967298286z" style="fill:rgb(41,42,168)"/><path d="M24.941926995712972,-31.365789980802326L28.695481125652282,-29.57323538741736L49.52913092285248,-59.597582375323526z" style="fill:rgb(83,212,212)"/><path d="M28.836473643702707,-23.190603802586686L24.941926995712972,-31.365789980802326L20.752192577496846,-32.64328370422516z" style="fill:rgb(53,37,179)"/><path d="M-159.6388965778692,53.144133502077196L-159.27230282828899,60.64396058606802L-158.2831745033681,68.01159265068263z" style="fill:rgb(83,212,212)"/><path d="M-40.85213704938189,6.494255431078597L-36.4392045761756,14.411550923744391L-35.78578956287262,10.32418431790372z" style="fill:rgb(246,149,167)"/><path d="M28.695481125652282,-29.57323538741736L31.943314716451912,-27.29093736383001L49.52913092285248,-59.597582375323526z" style="fill:rgb(83,212,212)"/><path d="M-35.78578956287262,10.32418431790372L-40.177614989595135,2.4043623592341823L-40.85213704938189,6.494255431078597z" style="fill:rgb(246,149,167)"/><path d="M28.695481125652282,-29.57323538741736L32.57539952739066,-21.38220967298286L35.813133890348425,-19.086118972200378z" style="fill:rgb(31,49,156)"/><path d="M32.57539952739066,-21.38220967298286L28.695481125652282,-29.57323538741736L24.941926995712972,-31.365789980802326z" style="fill:rgb(41,42,168)"/><path d="M-40.83324957304463,10.452189596439242L-36.4035375388139,18.369458316627725L-36.4392045761756,14.411550923744391z" style="fill:rgb(247,161,155)"/><path d="M-51.03721564438303,-32.56240510558915L-67.4804488339903,52.36387103725024L-40.1132546111652,14.207462334646095z" style="fill:rgb(83,212,212)"/><path d="M-36.4392045761756,14.411550923744391L-40.85213704938189,6.494255431078597L-40.83324957304463,10.452189596439242z" style="fill:rgb(247,161,155)"/><path d="M35.813133890348425,-19.086118972200378L31.943314716451912,-27.29093736383001L28.695481125652282,-29.57323538741736z" style="fill:rgb(31,49,156)"/><path d="M31.943314716451912,-27.29093736383001L35.813133890348425,-19.086118972200378L38.48739164254145,-16.336856519936546z" style="fill:rgb(22,57,143)"/><path d="M-40.1132546111652,14.207462334646095L-35.67149536214299,22.127233815872255L-36.4035375388139,18.369458316627725zM-36.4035375388139,18.369458316627725L-40.83324957304463,10.452189596439242L-40.1132546111652,14.207462334646095z" style="fill:rgb(245,172,142)"/><path d="M-155.1559549646408,22.41536047725883L-82.87110155025701,53.23076738164249L-77.54158408889492,52.23576750917684z" style="fill:rgb(83,212,212)"/><path d="M38.48739164254145,-16.336856519936546L34.6228790632193,-24.553110775458848L31.943314716451912,-27.29093736383001z" style="fill:rgb(22,57,143)"/><path d="M34.6228790632193,-24.553110775458848L38.48739164254145,-16.336856519936546L40.54421280737533,-13.177638522687554z" style="fill:rgb(15,66,131)"/><path d="M-159.6388965778692,53.144133502077196L-158.2831745033681,68.01159265068263L-82.87110155025701,53.23076738164249zM-51.03721564438303,-32.56240510558915L-77.54158408889492,52.23576750917684L-72.37128055343845,51.942982161104545z" style="fill:rgb(83,212,212)"/><path d="M-38.69648619664095,17.69121154199653L-34.24774745021755,25.616015466220933L-35.67149536214299,22.127233815872255z" style="fill:rgb(241,183,130)"/><path d="M-51.03721564438303,-32.56240510558915L-72.37128055343845,51.942982161104545L-67.4804488339903,52.36387103725024z" style="fill:rgb(83,212,212)"/><path d="M-157.42544170835976,71.82038719865542L-152.09347637921692,79.27619259612024L-78.02186251556604,60.97402574825523z" style="fill:rgb(127,37,217)"/><path d="M-35.67149536214299,22.127233815872255L-40.1132546111652,14.207462334646095L-38.69648619664095,17.69121154199653z" style="fill:rgb(241,183,130)"/><path d="M40.54421280737533,-13.177638522687554L36.680012047716126,-21.40269012369888L34.6228790632193,-24.553110775458848z" style="fill:rgb(15,66,131)"/><path d="M-158.2831745033681,68.01159265068263L-157.42544170835976,71.82038719865542L-82.87110155025701,53.23076738164249z" style="fill:rgb(83,212,212)"/><path d="M-78.02186251556604,60.97402574825523L-82.87110155025701,53.23076738164249L-157.42544170835976,71.82038719865542z" style="fill:rgb(127,37,217)"/><path d="M-67.4804488339903,52.36387103725024L-38.69648619664095,17.69121154199653L-40.1132546111652,14.207462334646095z" style="fill:rgb(83,212,212)"/><path d="M-82.87110155025701,53.23076738164249L-78.02186251556604,60.97402574825523L-72.72617368403324,59.999603363289026z" style="fill:rgb(118,35,214)"/><path d="M-67.4804488339903,52.36387103725024L-36.59982067291331,20.837743056307467L-38.69648619664095,17.69121154199653zM112.1425266618798,26.87300601586376L53.13159646259543,-57.68925945793213L49.52913092285248,-59.597582375323526z" style="fill:rgb(83,212,212)"/><path d="M-77.54158408889492,52.23576750917684L-72.72617368403324,59.999603363289026L-67.5857956675979,59.72643748829155z" style="fill:rgb(99,32,207)"/><path d="M162.03385055953876,-68.28944148081116L158.494628429039,-74.78670590085012L156.30235501832956,-78.0411099117146zM-67.4804488339903,52.36387103725024L-33.852976989664946,23.585922023078254L-36.59982067291331,20.837743056307467z" style="fill:rgb(83,212,212)"/><path d="M-72.72617368403324,59.999603363289026L-77.54158408889492,52.23576750917684L-82.87110155025701,53.23076738164249z" style="fill:rgb(118,35,214)"/><path d="M112.1425266618798,26.87300601586376L57.33115959637421,-56.34271763517721L53.13159646259543,-57.68925945793213z" style="fill:rgb(83,212,212)"/><path d="M-72.37128055343845,51.942982161104545L-67.5857956675979,59.72643748829155L-62.72032633841477,60.16549583127131z" style="fill:rgb(81,32,199)"/><path d="M-67.5857956675979,59.72643748829155L-72.37128055343845,51.942982161104545L-77.54158408889492,52.23576750917684z" style="fill:rgb(99,32,207)"/><path d="M-67.4804488339903,52.36387103725024L-30.498565547903247,25.880588844987184L-33.852976989664946,23.585922023078254zM112.1425266618798,26.87300601586376L62.02602828850098,-55.59839879087382L57.33115959637421,-56.34271763517721zM112.1425266618798,26.87300601586376L67.0990150047017,-55.48120246345202L62.02602828850098,-55.59839879087382z" style="fill:rgb(83,212,212)"/><path d="M-62.72032633841477,60.16549583127131L-67.4804488339903,52.36387103725024L-72.37128055343845,51.942982161104545z" style="fill:rgb(81,32,199)"/><path d="M-67.4804488339903,52.36387103725024L-26.591814025908757,27.673977046431816L-30.498565547903247,25.880588844987184z" style="fill:rgb(83,212,212)"/><path d="M-62.72032633841477,60.16549583127131L-58.24520178556877,61.312435188600006L-62.98511826286558,53.49458214516889z" style="fill:rgb(64,34,188)"/><path d="M112.1425266618798,26.87300601586376L72.42053389008345,-55.99921522939725L67.0990150047017,-55.48120246345202z" style="fill:rgb(83,212,212)"/><path d="M-62.98511826286558,53.49458214516889L-67.4804488339903,52.36387103725024L-62.72032633841477,60.16549583127131z" style="fill:rgb(64,34,188)"/><path d="M112.1425266618798,26.87300601586376L77.85221691210906,-57.14293167092305L72.42053389008345,-55.99921522939725zM-67.4804488339903,52.36387103725024L-22.199959672349035,28.927049071836073L-26.591814025908757,27.673977046431816z" style="fill:rgb(83,212,212)"/><path d="M-62.98511826286558,53.49458214516889L-58.24520178556877,61.312435188600006L-54.269320134776294,63.14713562005389z" style="fill:rgb(49,38,176)"/><path d="M-67.4804488339903,52.36387103725024L-17.40127474796509,29.61071028394606L-22.199959672349035,28.927049071836073zM-67.4804488339903,52.36387103725024L-12.2837082377701,29.70684770136546L-17.40127474796509,29.61071028394606z" style="fill:rgb(83,212,212)"/><path d="M-58.994705915113364,55.31545102586334L-54.269320134776294,63.14713562005389L-50.89253356787843,65.63344886828297z" style="fill:rgb(36,45,162)"/><path d="M-54.269320134776294,63.14713562005389L-58.994705915113364,55.31545102586334L-62.98511826286558,53.49458214516889z" style="fill:rgb(49,38,176)"/><path d="M167.26878948824694,-54.207952534170566L170.21628074127096,-45.450411755955336L167.91040762160486,-52.67631527698974zM167.91040762160486,-52.67631527698974L164.96755715699655,-61.42306287257998L167.26878948824694,-54.207952534170566z" style="fill:rgb(246,166,149)"/><path d="M167.26878948824694,-54.207952534170566L164.96755715699655,-61.42306287257998L162.03385055953876,-68.28944148081116zM156.30235501832956,-78.0411099117146L77.85221691210906,-57.14293167092305L121.79683351886413,26.716531671379702z" style="fill:rgb(83,212,212)"/><path d="M-50.89253356787843,65.63344886828297L-55.6094769696302,57.790756430171115L-58.994705915113364,55.31545102586334z" style="fill:rgb(36,45,162)"/><path d="M-55.6094769696302,57.790756430171115L-50.89253356787843,65.63344886828297L-48.20304520256553,68.71923245302136z" style="fill:rgb(25,54,148)"/><path d="M31.943314716451912,-27.29093736383001L130.25606707827765,59.50451551060816L49.52913092285248,-59.597582375323526z" style="fill:rgb(83,212,212)"/><path d="M-48.20304520256553,68.71923245302136L-52.91795028738959,60.86873671790987L-55.6094769696302,57.790756430171115z" style="fill:rgb(25,54,148)"/><path d="M168.91245942029457,-46.66720305681765L171.86956450490698,-37.90249893898323L170.21628074127096,-45.450411755955336zM170.21628074127096,-45.450411755955336L167.26878948824694,-54.207952534170566L168.91245942029457,-46.66720305681765z" style="fill:rgb(247,161,155)"/><path d="M169.87572562821074,-38.82667259421756L167.26878948824694,-54.207952534170566L162.03385055953876,-68.28944148081116zM162.03385055953876,-68.28944148081116L156.30235501832956,-78.0411099117146L121.79683351886413,26.716531671379702zM31.943314716451912,-27.29093736383001L34.6228790632193,-24.553110775458848L130.25606707827765,59.50451551060816zM34.6228790632193,-24.553110775458848L36.680012047716126,-21.40269012369888L130.25606707827765,59.50451551060816z" style="fill:rgb(83,212,212)"/><path d="M169.87572562821074,-38.82667259421756L172.847624001182,-30.058583424594804L171.86956450490698,-37.90249893898323zM171.86956450490698,-37.90249893898323L168.91245942029457,-46.66720305681765L169.87572562821074,-38.82667259421756z" style="fill:rgb(247,155,161)"/><path d="M169.87572562821074,-38.82667259421756L168.91245942029457,-46.66720305681765L167.26878948824694,-54.207952534170566zM36.680012047716126,-21.40269012369888L38.07032407416507,-17.891015197414436L130.25606707827765,59.50451551060816zM38.07032407416507,-17.891015197414436L38.76051366620137,-14.077280645505414L130.25606707827765,59.50451551060816zM38.76051366620137,-14.077280645505414L38.72955024793712,-10.027753577564397L130.25606707827765,59.50451551060816zM166.56771163835205,-5.0811586383183975L169.87572562821074,-38.82667259421756L162.03385055953876,-68.28944148081116z" style="fill:rgb(83,212,212)"/><path d="M170.1383904894131,-30.715009766683927L173.13044807677886,-21.947435153960875L172.847624001182,-30.058583424594804zM172.847624001182,-30.058583424594804L169.87572562821074,-38.82667259421756L170.1383904894131,-30.715009766683927z" style="fill:rgb(246,149,166)"/><path d="M111.43922590332062,24.76119793613017L114.00546943149548,23.086550362199944L77.85221691210906,-57.14293167092305zM77.85221691210906,-57.14293167092305L114.00546943149548,23.086550362199944L116.3027526724794,24.156852471726918zM112.1425266618798,26.87300601586376L111.43922590332062,24.76119793613017L77.85221691210906,-57.14293167092305zM38.72955024793712,-10.027753577564397L37.96969520065652,-5.814757868682835L130.25606707827765,59.50451551060816zM71.74575653277263,65.63354431358297L25.747966036542326,13.222268499761421L23.963367739624584,14.923455970249222zM37.96969520065652,-5.814757868682835L36.487247840948235,-1.5154167114965853L130.25606707827765,59.50451551060816zM-67.4804488339903,52.36387103725024L85.57655372506133,72.85777472642567L-12.2837082377701,29.70684770136546zM71.74575653277263,65.63354431358297L23.963367739624584,14.923455970249222L19.463585829039644,18.443527678702395zM71.74575653277263,65.63354431358297L3.9956026515389245,26.467797728307083L-1.4815800667158963,28.123326382015275zM119.94093840469466,30.538021789725615L77.85221691210906,-57.14293167092305L116.3027526724794,24.156852471726918zM71.74575653277263,65.63354431358297L19.463585829039644,18.443527678702395L14.57143324708758,21.580638218552853zM71.74575653277263,65.63354431358297L9.381689988871784,24.27291457571132L3.9956026515389245,26.467797728307083zM71.74575653277263,65.63354431358297L14.57143324708758,21.580638218552853L9.381689988871784,24.27291457571132zM119.21560596317114,28.40373135881275L121.79683351886413,26.716531671379702L77.85221691210906,-57.14293167092305zM36.487247840948235,-1.5154167114965853L34.3029957811734,2.7898375681211345L130.25606707827765,59.50451551060816zM119.94093840469466,30.538021789725615L119.21560596317114,28.40373135881275L77.85221691210906,-57.14293167092305zM85.57655372506133,72.85777472642567L-6.9431877664758055,29.20909493038724L-12.2837082377701,29.70684770136546z" style="fill:rgb(83,212,212)"/><path d="M130.25606707827765,59.50451551060816L29.05023928803001,9.839083037334532L33.0758388082187,18.03067543106745z" style="fill:rgb(42,41,169)"/><path d="M169.68323785091073,-22.363652333893604L172.7009623081395,-13.600582579772954L173.13044807677886,-21.947435153960875zM173.13044807677886,-21.947435153960875L170.1383904894131,-30.715009766683927L169.68323785091073,-22.363652333893604z" style="fill:rgb(245,143,172)"/><path d="M85.57655372506133,72.85777472642567L-1.4815800667158963,28.123326382015275L-6.9431877664758055,29.20909493038724zM34.3029957811734,2.7898375681211345L31.45228902236364,7.01894466935367L130.25606707827765,59.50451551060816zM169.68323785091073,-22.363652333893604L170.1383904894131,-30.715009766683927L169.87572562821074,-38.82667259421756zM31.45228902236364,7.01894466935367L29.05023928803001,9.839083037334532L130.25606707827765,59.50451551060816zM-67.4804488339903,52.36387103725024L-62.98511826286558,53.49458214516889L107.51175262924845,81.88272331773598zM130.25606707827765,59.50451551060816L112.1425266618798,26.87300601586376L49.52913092285248,-59.597582375323526zM-62.98511826286558,53.49458214516889L-58.994705915113364,55.31545102586334L107.51175262924845,81.88272331773598zM-58.994705915113364,55.31545102586334L-55.6094769696302,57.790756430171115L107.51175262924845,81.88272331773598z" style="fill:rgb(83,212,212)"/><path d="M168.49638060456425,-13.806764813030112L171.54546969528002,-5.0522469090497975L172.7009623081395,-13.600582579772954zM172.7009623081395,-13.600582579772954L169.68323785091073,-22.363652333893604L168.49638060456425,-13.806764813030112z" style="fill:rgb(244,137,177)"/><path d="M166.56771163835205,-5.0811586383183975L169.68323785091073,-22.363652333893604L169.87572562821074,-38.82667259421756zM162.03385055953876,-68.28944148081116L121.79683351886413,26.716531671379702L124.12551623149677,27.801465292073846zM-55.6094769696302,57.790756430171115L-52.91795028738959,60.86873671790987L107.51175262924845,81.88272331773598zM-50.99428998243689,64.48199030584644L-49.89574946429997,68.54827525142605L-24.705572783969206,140.40300113791469zM-52.91795028738959,60.86873671790987L-50.99428998243689,64.48199030584644L107.51175262924845,81.88272331773598z" style="fill:rgb(83,212,212)"/><path d="M166.56771163835205,-5.0811586383183975L169.65387826734928,3.660739073530387L171.54546969528002,-5.0522469090497975zM171.54546969528002,-5.0522469090497975L168.49638060456425,-13.806764813030112L166.56771163835205,-5.0811586383183975z" style="fill:rgb(242,131,182)"/><path d="M-49.89574946429997,68.54827525142605L-49.660329735458426,72.97187605290695L-24.705572783969206,140.40300113791469zM166.56771163835205,-5.0811586383183975L168.49638060456425,-13.806764813030112L169.68323785091073,-22.363652333893604z" style="fill:rgb(83,212,212)"/><path d="M121.46813466682725,41.728580773408574L122.59022822836005,39.3960893201247L116.3027526724794,24.156852471726918z" style="fill:rgb(234,114,195)"/><path d="M130.25606707827765,59.50451551060816L166.56771163835205,-5.0811586383183975L162.03385055953876,-68.28944148081116z" style="fill:rgb(83,212,212)"/><path d="M118.49551485872215,42.079208255275006L121.46813466682725,41.728580773408574L115.15377348853093,26.501129130719697z" style="fill:rgb(108,33,211)"/><path d="M71.12144152627313,63.401567524028685L73.7414419746093,61.68788410515748L25.747966036542326,13.222268499761421z" style="fill:rgb(83,212,212)"/><path d="M111.43922590332062,24.76119793613017L114.99047095049268,33.26486300728022L117.53413871602552,31.60155762134234z" style="fill:rgb(181,61,221)"/><path d="M25.747966036542326,13.222268499761421L73.7414419746093,61.68788410515748L75.99331787569199,62.853940990739474z" style="fill:rgb(83,212,212)"/><path d="M114.00546943149548,23.086550362199944L117.53413871602552,31.60155762134234L119.81920700045423,32.679835339828976z" style="fill:rgb(42,41,169)"/><path d="M71.74575653277263,65.63354431358297L71.12144152627313,63.401567524028685L25.747966036542326,13.222268499761421z" style="fill:rgb(83,212,212)"/><path d="M167.02023119728128,12.499074152531177L169.65387826734928,3.660739073530387L166.56771163835205,-5.0811586383183975z" style="fill:rgb(240,125,187)"/><path d="M112.1425266618798,26.87300601586376L115.69563305181728,35.37754207324421L114.99047095049268,33.26486300728022z" style="fill:rgb(245,172,143)"/><path d="M130.25606707827765,59.50451551060816L162.03385055953876,-68.28944148081116L124.12551623149677,27.801465292073846z" style="fill:rgb(83,212,212)"/><path d="M117.53413871602552,31.60155762134234L114.00546943149548,23.086550362199944L111.43922590332062,24.76119793613017z" style="fill:rgb(181,61,221)"/><path d="M115.15377348853093,26.501129130719697L112.1425266618798,26.87300601586376L118.49551485872215,42.079208255275006z" style="fill:rgb(108,33,211)"/><path d="M116.3027526724794,24.156852471726918L115.15377348853093,26.501129130719697L121.46813466682725,41.728580773408574z" style="fill:rgb(234,114,195)"/><path d="M114.99047095049268,33.26486300728022L111.43922590332062,24.76119793613017L112.1425266618798,26.87300601586376z" style="fill:rgb(245,172,143)"/><path d="M119.81920700045423,32.679835339828976L116.3027526724794,24.156852471726918L114.00546943149548,23.086550362199944z" style="fill:rgb(42,41,169)"/><path d="M129.21957705773337,45.44195524149159L130.33724793333985,43.08807312135748L124.12551623149677,27.801465292073846z" style="fill:rgb(234,114,195)"/><path d="M84.91316290500042,70.58154019301293L25.747966036542326,13.222268499761421L75.99331787569199,62.853940990739474z" style="fill:rgb(83,212,212)"/><path d="M126.2189507821516,45.79108647432224L129.21957705773337,45.44195524149159L122.98096214664386,30.167464031088993z" style="fill:rgb(108,33,211)"/><path d="M85.57655372506133,72.85777472642567L71.74575653277263,65.63354431358297L-1.4815800667158963,28.123326382015275z" style="fill:rgb(83,212,212)"/><path d="M166.56771163835205,-5.0811586383183975L163.89116205103858,3.7738458657026084L167.02023119728128,12.499074152531177z" style="fill:rgb(240,125,187)"/><path d="M111.43922590332062,24.76119793613017L116.3027526724794,24.156852471726918L114.00546943149548,23.086550362199944z" style="fill:rgb(83,212,212)"/><path d="M119.21560596317114,28.40373135881275L122.72533181922047,36.934116636401605L125.28372886803338,35.25843557768352z" style="fill:rgb(181,61,221)"/><path d="M121.79683351886413,26.716531671379702L125.28372886803338,35.25843557768352L127.5997649898761,36.35132651599976z" style="fill:rgb(42,41,169)"/><path d="M111.43922590332062,24.76119793613017L115.15377348853093,26.501129130719697L116.3027526724794,24.156852471726918zM111.43922590332062,24.76119793613017L112.1425266618798,26.87300601586376L115.15377348853093,26.501129130719697zM84.91316290500042,70.58154019301293L87.56146093972112,68.84409970436515L25.747966036542326,13.222268499761421z" style="fill:rgb(83,212,212)"/><path d="M119.94093840469466,30.538021789725615L123.45227055817551,39.069152891749056L122.72533181922047,36.934116636401605z" style="fill:rgb(245,172,143)"/><path d="M25.747966036542326,13.222268499761421L87.56146093972112,68.84409970436515L89.87008825221986,70.03954065874925z" style="fill:rgb(83,212,212)"/><path d="M125.28372886803338,35.25843557768352L121.79683351886413,26.716531671379702L119.21560596317114,28.40373135881275z" style="fill:rgb(181,61,221)"/><path d="M33.0758388082187,18.03067543106745L133.78301275749263,68.03964282123599L130.25606707827765,59.50451551060816z" style="fill:rgb(42,41,169)"/><path d="M160.46506387949236,12.716606917626054L163.6428559894864,21.421176268944613L167.02023119728128,12.499074152531177z" style="fill:rgb(237,120,191)"/><path d="M122.98096214664386,30.167464031088993L119.94093840469466,30.538021789725615L126.2189507821516,45.79108647432224z" style="fill:rgb(108,33,211)"/><path d="M124.12551623149677,27.801465292073846L122.98096214664386,30.167464031088993L129.21957705773337,45.44195524149159z" style="fill:rgb(234,114,195)"/><path d="M119.94093840469466,30.538021789725615L116.3027526724794,24.156852471726918L115.15377348853093,26.501129130719697z" style="fill:rgb(83,212,212)"/><path d="M167.02023119728128,12.499074152531177L163.89116205103858,3.7738458657026084L160.46506387949236,12.716606917626054z" style="fill:rgb(237,120,191)"/><path d="M122.72533181922047,36.934116636401605L119.21560596317114,28.40373135881275L119.94093840469466,30.538021789725615z" style="fill:rgb(245,172,143)"/><path d="M119.94093840469466,30.538021789725615L115.15377348853093,26.501129130719697L112.1425266618798,26.87300601586376z" style="fill:rgb(83,212,212)"/><path d="M127.5997649898761,36.35132651599976L124.12551623149677,27.801465292073846L121.79683351886413,26.716531671379702z" style="fill:rgb(42,41,169)"/><path d="M160.46506387949236,12.716606917626054L163.89116205103858,3.7738458657026084L166.56771163835205,-5.0811586383183975zM119.21560596317114,28.40373135881275L124.12551623149677,27.801465292073846L121.79683351886413,26.716531671379702zM-67.4804488339903,52.36387103725024L107.51175262924845,81.88272331773598L85.57655372506133,72.85777472642567z" style="fill:rgb(83,212,212)"/><path d="M81.79138105168809,80.17282974528786L82.99285889453378,77.74386005964894L75.99331787569199,62.853940990739474zM159.52474148578094,30.38340976311046L163.6428559894864,21.421176268944613L160.46506387949236,12.716606917626054z" style="fill:rgb(234,114,195)"/><path d="M119.21560596317114,28.40373135881275L122.98096214664386,30.167464031088993L124.12551623149677,27.801465292073846z" style="fill:rgb(83,212,212)"/><path d="M78.81353292986655,80.48876484713168L81.79138105168809,80.17282974528786L74.76217445593109,65.29692743965946z" style="fill:rgb(108,33,211)"/><path d="M119.21560596317114,28.40373135881275L119.94093840469466,30.538021789725615L122.98096214664386,30.167464031088993zM-49.660329735458426,72.97187605290695L-52.71935306892221,141.59854371348376L-47.015132722517684,141.75008919810693zM107.51175262924845,81.88272331773598L25.747966036542326,13.222268499761421L89.87008825221986,70.03954065874925z" style="fill:rgb(83,212,212)"/><path d="M71.12144152627313,63.401567524028685L75.0712846517014,71.71125093503532L77.66777552437065,70.00948444806811z" style="fill:rgb(181,61,221)"/><path d="M73.7414419746093,61.68788410515748L77.66777552437065,70.00948444806811L79.90842255518649,71.18243478136004z" style="fill:rgb(42,41,169)"/><path d="M151.38136197006597,30.688654142446868L160.46506387949236,12.716606917626054L166.56771163835205,-5.0811586383183975zM124.69360960213912,65.66023162429387L126.82404877498854,63.3025736797803L25.747966036542326,13.222268499761421z" style="fill:rgb(83,212,212)"/><path d="M71.74575653277263,65.63354431358297L75.69904159383601,73.94265882524147L75.0712846517014,71.71125093503532z" style="fill:rgb(245,172,143)"/><path d="M77.66777552437065,70.00948444806811L73.7414419746093,61.68788410515748L71.12144152627313,63.401567524028685z" style="fill:rgb(181,61,221)"/><path d="M160.46506387949236,12.716606917626054L156.29247354785178,21.703388923771662L159.52474148578094,30.38340976311046z" style="fill:rgb(234,114,195)"/><path d="M74.76217445593109,65.29692743965946L71.74575653277263,65.63354431358297L78.81353292986655,80.48876484713168z" style="fill:rgb(108,33,211)"/><path d="M75.99331787569199,62.853940990739474L74.76217445593109,65.29692743965946L81.79138105168809,80.17282974528786z" style="fill:rgb(234,114,195)"/><path d="M-49.660329735458426,72.97187605290695L-47.015132722517684,141.75008919810693L-24.705572783969206,140.40300113791469z" style="fill:rgb(83,212,212)"/><path d="M75.0712846517014,71.71125093503532L71.12144152627313,63.401567524028685L71.74575653277263,65.63354431358297z" style="fill:rgb(245,172,143)"/><path d="M107.51175262924845,81.88272331773598L124.69360960213912,65.66023162429387L25.747966036542326,13.222268499761421z" style="fill:rgb(83,212,212)"/><path d="M79.90842255518649,71.18243478136004L75.99331787569199,62.853940990739474L73.7414419746093,61.68788410515748z" style="fill:rgb(42,41,169)"/><path d="M151.38136197006597,30.688654142446868L154.67376458573423,39.340379649174395L159.52474148578094,30.38340976311046z" style="fill:rgb(230,108,199)"/><path d="M71.12144152627313,63.401567524028685L75.99331787569199,62.853940990739474L73.7414419746093,61.68788410515748zM-50.99428998243689,64.48199030584644L-24.705572783969206,140.40300113791469L107.51175262924845,81.88272331773598z" style="fill:rgb(83,212,212)"/><path d="M159.52474148578094,30.38340976311046L156.29247354785178,21.703388923771662L151.38136197006597,30.688654142446868z" style="fill:rgb(230,108,199)"/><path d="M130.25606707827765,59.50451551060816L119.94093840469466,30.538021789725615L112.1425266618798,26.87300601586376zM71.12144152627313,63.401567524028685L74.76217445593109,65.29692743965946L75.99331787569199,62.853940990739474zM151.38136197006597,30.688654142446868L156.29247354785178,21.703388923771662L160.46506387949236,12.716606917626054zM71.12144152627313,63.401567524028685L71.74575653277263,65.63354431358297L74.76217445593109,65.29692743965946zM130.25606707827765,59.50451551060816L124.12551623149677,27.801465292073846L122.98096214664386,30.167464031088993z" style="fill:rgb(83,212,212)"/><path d="M149.1028710161587,48.245252812387236L154.67376458573423,39.340379649174395L151.38136197006597,30.688654142446868z" style="fill:rgb(226,102,203)"/><path d="M130.25606707827765,59.50451551060816L122.98096214664386,30.167464031088993L119.94093840469466,30.538021789725615z" style="fill:rgb(83,212,212)"/><path d="M95.54764377931959,87.4729938324929L96.74228115334161,85.00254107011126L89.87008825221986,70.03954065874925z" style="fill:rgb(234,114,195)"/><path d="M130.25606707827765,59.50451551060816L151.38136197006597,30.688654142446868L166.56771163835205,-5.0811586383183975z" style="fill:rgb(83,212,212)"/><path d="M92.51846708176815,87.78509580250689L95.54764377931959,87.4729938324929L88.64572935527241,72.52471378130743z" style="fill:rgb(108,33,211)"/><path d="M84.91316290500042,70.58154019301293L88.79338282369523,78.93255034818732L91.41766394672072,77.20736556018788z" style="fill:rgb(181,61,221)"/><path d="M85.57655372506133,72.85777472642567L75.99331787569199,62.853940990739474L74.76217445593109,65.29692743965946zM85.57655372506133,72.85777472642567L74.76217445593109,65.29692743965946L71.74575653277263,65.63354431358297z" style="fill:rgb(83,212,212)"/><path d="M87.56146093972112,68.84409970436515L91.41766394672072,77.20736556018788L93.71429042139277,78.40961770346227z" style="fill:rgb(42,41,169)"/><path d="M-52.71935306892221,141.59854371348376L-47.65459830586234,149.33994453527407L-41.986159156955665,149.5106874563709z" style="fill:rgb(94,32,205)"/><path d="M151.38136197006597,30.688654142446868L145.74483929500533,39.62538552876982L149.1028710161587,48.245252812387236z" style="fill:rgb(226,102,203)"/><path d="M85.57655372506133,72.85777472642567L89.45977030801285,81.20792022239694L88.79338282369523,78.93255034818732z" style="fill:rgb(245,172,143)"/><path d="M91.41766394672072,77.20736556018788L87.56146093972112,68.84409970436515L84.91316290500042,70.58154019301293z" style="fill:rgb(181,61,221)"/><path d="M85.57655372506133,72.85777472642567L84.91316290500042,70.58154019301293L75.99331787569199,62.853940990739474z" style="fill:rgb(83,212,212)"/><path d="M88.64572935527241,72.52471378130743L85.57655372506133,72.85777472642567L92.51846708176815,87.78509580250689z" style="fill:rgb(108,33,211)"/><path d="M89.87008825221986,70.03954065874925L88.64572935527241,72.52471378130743L95.54764377931959,87.4729938324929z" style="fill:rgb(234,114,195)"/><path d="M139.40131940992976,48.46546075147126L142.83024696227986,57.050130781434646L149.1028710161587,48.245252812387236z" style="fill:rgb(222,96,207)"/><path d="M88.79338282369523,78.93255034818732L84.91316290500042,70.58154019301293L85.57655372506133,72.85777472642567z" style="fill:rgb(245,172,143)"/><path d="M93.71429042139277,78.40961770346227L89.87008825221986,70.03954065874925L87.56146093972112,68.84409970436515z" style="fill:rgb(42,41,169)"/><path d="M-47.015132722517684,141.75008919810693L-41.986159156955665,149.5106874563709L-31.02905485594884,149.19733798858692z" style="fill:rgb(101,32,208)"/><path d="M149.1028710161587,48.245252812387236L145.74483929500533,39.62538552876982L139.40131940992976,48.46546075147126z" style="fill:rgb(222,96,207)"/><path d="M-41.986159156955665,149.5106874563709L-47.015132722517684,141.75008919810693L-52.71935306892221,141.59854371348376z" style="fill:rgb(94,32,205)"/><path d="M139.40131940992976,48.46546075147126L145.74483929500533,39.62538552876982L151.38136197006597,30.688654142446868zM84.91316290500042,70.58154019301293L89.87008825221986,70.03954065874925L87.56146093972112,68.84409970436515zM84.91316290500042,70.58154019301293L88.64572935527241,72.52471378130743L89.87008825221986,70.03954065874925zM84.91316290500042,70.58154019301293L85.57655372506133,72.85777472642567L88.64572935527241,72.52471378130743z" style="fill:rgb(83,212,212)"/><path d="M132.37454753251066,57.16008649069194L135.87934531235905,65.70648101839846L142.83024696227986,57.050130781434646z" style="fill:rgb(217,91,210)"/><path d="M-35.98537581070056,141.3983346363636L-31.02905485594884,149.19733798858692L-19.827079779077643,148.24261224879842z" style="fill:rgb(108,33,211)"/><path d="M-31.02905485594884,149.19733798858692L-35.98537581070056,141.3983346363636L-47.015132722517684,141.75008919810693z" style="fill:rgb(101,32,208)"/><path d="M130.25606707827765,59.50451551060816L139.40131940992976,48.46546075147126L151.38136197006597,30.688654142446868z" style="fill:rgb(83,212,212)"/><path d="M142.83024696227986,57.050130781434646L139.40131940992976,48.46546075147126L132.37454753251066,57.16008649069194z" style="fill:rgb(217,91,210)"/><path d="M130.25606707827765,59.50451551060816L133.78301275749263,68.03964282123599L135.87934531235905,65.70648101839846z" style="fill:rgb(212,85,213)"/><path d="M-24.705572783969206,140.40300113791469L-19.827079779077643,148.24261224879842L-8.438076490503686,146.64377918415423z" style="fill:rgb(116,34,214)"/><path d="M135.87934531235905,65.70648101839846L132.37454753251066,57.16008649069194L130.25606707827765,59.50451551060816zM124.69360960213912,65.66023162429387L128.278894903239,74.1655675140987L130.38695792620342,71.81935523226899z" style="fill:rgb(212,85,213)"/><path d="M-19.827079779077643,148.24261224879842L-24.705572783969206,140.40300113791469L-35.98537581070056,141.3983346363636z" style="fill:rgb(108,33,211)"/><path d="M-47.015132722517684,141.75008919810693L-35.98537581070056,141.3983346363636L-24.705572783969206,140.40300113791469zM107.51175262924845,81.88272331773598L89.87008825221986,70.03954065874925L88.64572935527241,72.52471378130743zM130.25606707827765,59.50451551060816L132.37454753251066,57.16008649069194L139.40131940992976,48.46546075147126zM107.51175262924845,81.88272331773598L88.64572935527241,72.52471378130743L85.57655372506133,72.85777472642567z" style="fill:rgb(83,212,212)"/><path d="M130.38695792620342,71.81935523226899L126.82404877498854,63.3025736797803L124.69360960213912,65.66023162429387z" style="fill:rgb(212,85,213)"/><path d="M116.39286786491776,73.91711682188506L120.06282655220481,82.37893591623533L128.278894903239,74.1655675140987z" style="fill:rgb(206,80,215)"/><path d="M-13.234044588890052,138.76149408050554L-8.438076490503686,146.64377918415423L3.0775697886867395,144.40261415136388z" style="fill:rgb(123,36,216)"/><path d="M-8.438076490503686,146.64377918415423L-13.234044588890052,138.76149408050554L-24.705572783969206,140.40300113791469z" style="fill:rgb(116,34,214)"/><path d="M128.278894903239,74.1655675140987L124.69360960213912,65.66023162429387L116.39286786491776,73.91711682188506z" style="fill:rgb(206,80,215)"/><path d="M107.51175262924845,81.88272331773598L111.27010962152363,90.29891207392204L120.06282655220481,82.37893591623533z" style="fill:rgb(200,75,217)"/><path d="M-1.6317173560262783,136.4757606306044L3.0775697886867395,144.40261415136388L14.65746176333915,141.5254891008151z" style="fill:rgb(131,38,218)"/><path d="M3.0775697886867395,144.40261415136388L-1.6317173560262783,136.4757606306044L-13.234044588890052,138.76149408050554z" style="fill:rgb(123,36,216)"/><path d="M101.94448149163267,97.87910774897325L111.27010962152363,90.29891207392204L107.51175262924845,81.88272331773598z" style="fill:rgb(194,70,219)"/><path d="M120.06282655220481,82.37893591623533L116.39286786491776,73.91711682188506L107.51175262924845,81.88272331773598z" style="fill:rgb(200,75,217)"/><path d="M-24.705572783969206,140.40300113791469L-13.234044588890052,138.76149408050554L-1.6317173560262783,136.4757606306044z" style="fill:rgb(83,212,212)"/><path d="M10.038422141896133,133.5523795539977L14.65746176333915,141.5254891008151L26.237770985618006,138.02341574642793z" style="fill:rgb(138,40,220)"/><path d="M107.51175262924845,81.88272331773598L116.39286786491776,73.91711682188506L124.69360960213912,65.66023162429387z" style="fill:rgb(83,212,212)"/><path d="M14.65746176333915,141.5254891008151L10.038422141896133,133.5523795539977L-1.6317173560262783,136.4757606306044z" style="fill:rgb(131,38,218)"/><path d="M88.1900383557853,96.75481368366542L92.13413927479051,105.07492303461088L101.94448149163267,97.87910774897325z" style="fill:rgb(188,65,220)"/><path d="M-24.705572783969206,140.40300113791469L-1.6317173560262783,136.4757606306044L21.7119086302042,130.00260391523042z" style="fill:rgb(83,212,212)"/><path d="M21.7119086302042,130.00260391523042L26.237770985618006,138.02341574642793L37.75385230920684,133.91206947196505z" style="fill:rgb(146,43,221)"/><path d="M107.51175262924845,81.88272331773598L98.09455061120681,89.51027783118951L101.94448149163267,97.87910774897325z" style="fill:rgb(194,70,219)"/><path d="M77.85111433849836,103.57360170702373L81.89132075342185,111.8440238945236L92.13413927479051,105.07492303461088z" style="fill:rgb(181,61,221)"/><path d="M33.32342802130615,125.84238354082136L37.75385230920684,133.91206947196505L49.14090323367964,129.21171692822992z" style="fill:rgb(153,46,222)"/><path d="M-24.705572783969206,140.40300113791469L67.13425822855228,109.92669408281293L107.51175262924845,81.88272331773598z" style="fill:rgb(83,212,212)"/><path d="M26.237770985618006,138.02341574642793L21.7119086302042,130.00260391523042L10.038422141896133,133.5523795539977z" style="fill:rgb(138,40,220)"/><path d="M67.13425822855228,109.92669408281293L71.27186182036672,118.14685248587583L81.89132075342185,111.8440238945236z" style="fill:rgb(175,57,222)"/><path d="M101.94448149163267,97.87910774897325L98.09455061120681,89.51027783118951L88.1900383557853,96.75481368366542z" style="fill:rgb(188,65,220)"/><path d="M44.80747595755513,121.09229016455473L49.14090323367964,129.21171692822992L60.33461909047558,123.94701780879251z" style="fill:rgb(160,49,222)"/><path d="M56.09903927015048,115.77731534697578L60.33461909047558,123.94701780879251L71.27186182036672,118.14685248587583z" style="fill:rgb(168,53,222)"/><path d="M-24.705572783969206,140.40300113791469L21.7119086302042,130.00260391523042L67.13425822855228,109.92669408281293zM-1.6317173560262783,136.4757606306044L10.038422141896133,133.5523795539977L21.7119086302042,130.00260391523042z" style="fill:rgb(83,212,212)"/><path d="M37.75385230920684,133.91206947196505L33.32342802130615,125.84238354082136L21.7119086302042,130.00260391523042z" style="fill:rgb(146,43,221)"/><path d="M92.13413927479051,105.07492303461088L88.1900383557853,96.75481368366542L77.85111433849836,103.57360170702373z" style="fill:rgb(181,61,221)"/><path d="M88.1900383557853,96.75481368366542L98.09455061120681,89.51027783118951L107.51175262924845,81.88272331773598z" style="fill:rgb(83,212,212)"/><path d="M49.14090323367964,129.21171692822992L44.80747595755513,121.09229016455473L33.32342802130615,125.84238354082136z" style="fill:rgb(153,46,222)"/><path d="M81.89132075342185,111.8440238945236L77.85111433849836,103.57360170702373L67.13425822855228,109.92669408281293z" style="fill:rgb(175,57,222)"/><path d="M60.33461909047558,123.94701780879251L56.09903927015048,115.77731534697578L44.80747595755513,121.09229016455473z" style="fill:rgb(160,49,222)"/><path d="M71.27186182036672,118.14685248587583L67.13425822855228,109.92669408281293L56.09903927015048,115.77731534697578z" style="fill:rgb(168,53,222)"/><path d="M67.13425822855228,109.92669408281293L88.1900383557853,96.75481368366542L107.51175262924845,81.88272331773598zM21.7119086302042,130.00260391523042L33.32342802130615,125.84238354082136L44.80747595755513,121.09229016455473zM21.7119086302042,130.00260391523042L44.80747595755513,121.09229016455473L67.13425822855228,109.92669408281293zM67.13425822855228,109.92669408281293L77.85111433849836,103.57360170702373L88.1900383557853,96.75481368366542zM44.80747595755513,121.09229016455473L56.09903927015048,115.77731534697578L67.13425822855228,109.92669408281293z" style="fill:rgb(83,212,212)"/></svg>
